<svg width="50" height="50" viewBox="0 0 50 50" xmlns="http://www.w3.org/2000/svg">
  <title>Kollegorna Logo</title>
  <path d="M23.575 31.775L21.8 27.25l-1.125 5.325c-.575 2.725-1.85 4.125-4.45 4.125H14.95c-2.4 0-3.825-1.45-3.25-4.2l3.35-15.7c.6-2.775 1.875-4.05 4.375-4.05h1.35c2.4 0 3.825 1.45 3.25 4.2l-1.175 5.475 8.4-10.025c.1-.1 5.6.875 5.6 4.3 0 1.25-.7 2.575-2.175 4L29.8 25.65l1.95 3.85c.975 1.975 1.925 2.7 3.5 2.775.25 0 .025 4.525-5.2 4.525-3.8-.025-5.2-1.8-6.475-5.025zM24.9 49.8C11.175 49.8 0 38.65 0 24.9 0 11.15 11.175 0 24.9 0c13.725 0 24.9 11.175 24.9 24.9 0 13.725-11.15 24.9-24.9 24.9zm0-46.05c-11.65 0-21.15 9.5-21.15 21.15 0 11.675 9.5 21.15 21.15 21.15 11.675 0 21.15-9.5 21.15-21.15 0-11.65-9.475-21.15-21.15-21.15z"/>
</svg>
