<svg version="1" xmlns="http://www.w3.org/2000/svg" width="512pt" height="512pt" viewBox="0 0 512.000000 512.000000"><path d="M243.7.6c-.1.1-4.5.4-9.7.7-5.2.3-15.1 1.5-22 2.7-25.6 4.4-41.3 9.4-64 20.3-8.8 4.2-14.9 7.6-33.9 19.2-2.2 1.3-8.1 5.7-16.6 12.5-27.3 21.5-52.2 51.3-68.1 81.4-5.5 10.6-14.7 31.6-13.7 31.6.3 0 .1.6-.4 1.2-.6.7-1.3 2.2-1.6 3.3-.3 1.1-1.9 6.7-3.5 12.5-1.7 5.8-3.9 14.8-5 20-1.9 8.7-2.5 12.8-3.7 24.5-.7 6.4-.7 38.3 0 46.5.3 4.1.8 9.3.9 11.5.3 3.2 1.5 11.8 2.1 14.5.1.3.4 2.1.8 4 6.4 30.4 19.3 62.5 34.3 85.5 19.5 30 49.7 60 80.4 80 30.3 19.7 71.2 34 106 37 4.1.4 8.6.9 10 1.1 3.7.6 34.7.6 41-.1 13.7-1.5 18.3-2.1 30.5-4.1 1.7-.3 8.2-1.8 14.5-3.5 6.3-1.7 12.2-3.2 13-3.4 3.5-.7 23.2-8.6 31.5-12.5 14.2-6.6 38.7-21.6 44.7-27.3.7-.7 4.5-3.7 8.3-6.8 18.7-15 41.9-42.2 56.6-66.4 4.4-7.4 15.9-29.7 15.9-31.1 0-.5.6-2.1 1.4-3.5 1.2-2.4 7.7-20.9 8.2-23.4.1-.6 1-3.9 1.9-7.5.9-3.6 1.9-7.6 2.1-9 .3-1.4.7-3.6.9-5 3.4-17.1 4.3-27.1 4.3-51 0-43.1-7.4-76.1-25.3-112.5-28.1-57.1-82.3-106-141.1-127.4-9.7-3.5-29.1-9.1-36.4-10.5-15.2-2.9-20.3-3.4-40.5-4.2-21.5-.8-23.6-.9-23.8-.8zm36.3 39.7c1.4.3 4.8.8 7.5 1.1 10.2 1.1 22.6 4 35 8.1 52.7 17.3 98.6 55.9 125.3 105.5 5.1 9.5 12.1 26.7 16.1 39.6 3 9.5 3.4 11.2 4.6 17.4.2 1.4.7 3.6 1 5 2.3 11.8 2.9 19.2 2.9 37.5 0 20.5-.9 32-3.9 47.6-1.1 6.1-6.7 23.3-11 33.9-20.3 50.5-60.7 93.6-108.8 115.9-4.9 2.3-9 4.1-9.3 4.1-.2 0-2.3.8-4.7 1.9-11.5 5.1-28.9 10.2-40.2 11.7-2.7.3-5.2.7-5.5.9-3.2 1.9-40.3 2.6-56 1.1-31.3-2.9-68.9-16.4-95.7-34.3-41.4-27.6-69.5-63.9-86.7-112.1-2.1-5.7-3.9-11.1-4.1-12-.1-.9-.8-3.7-1.5-6.2-1.4-5.1-2-8.2-2.5-12.5-.8-7.1-1.8-13.1-2.6-15.2-.8-2.2-.5-46 .4-49.9.3-1.2.8-4.5 1.2-7.5.3-3 .8-6.2 1.1-7.1.3-.9.6-2.5.8-3.5 1.9-9.3 7.6-27.3 12.3-38.2 6.1-14.5 17.9-35.7 23.9-43 .7-.9 3.4-4.4 5.9-7.8 11.6-15.6 33-35.3 51.9-47.8 27.1-17.8 59.8-29.9 92.1-34 2.7-.3 5.1-.8 5.3-1 .5-.5 42.4.2 45.2.8zM319.8 129.8c-1.3.9-2.7 2.1-3.3 2.8-.5.6-6.9 8.3-14.1 17-7.2 8.8-14 16.9-15 18.1-1.1 1.1-3.5 4.1-5.4 6.4-5.5 6.8-40.1 47.9-43.7 51.9l-3.2 3.5 1.9-8c1-4.4 2.1-9.6 2.4-11.5.3-1.9 1.9-9.6 3.6-17 4.7-20.7 5.6-33.2 3-42.5-2.1-7.6-10.4-15.3-18.1-16.9-1.3-.3-4.6-.9-7.4-1.5-5.1-1-26.5-.8-32 .4-7.3 1.5-12.7 3.9-16.9 7.7-10.4 9.1-14.9 21.4-24.6 68-2.8 13.4-6.5 30.4-8.1 37.8-1.7 7.4-3.2 14.4-3.5 15.4-.2 1.1-1.3 6.5-2.5 12-1.1 5.6-2.2 10.8-2.4 11.6-2.4 11-6.7 31.1-7.1 33l-.9 5c-4.2 21.3-4.3 29.7-.2 37.6 6.1 11.9 14.9 15.7 37.7 16 33.1.5 42.5-6.7 51.4-39.6 3.2-11.9 8-32.4 9.2-38.8.8-4.6 1.3-7.7 2-11.9l.6-4.4 1.7 2.8c1 1.5 5.2 11.3 9.5 21.8 16.9 41.1 20.6 47.8 31.7 57.8 10.5 9.6 20.5 12.9 39.4 13.1 19.3.2 27.4-1.5 35.8-7.2 10.9-7.6 21.7-23.6 21.7-32.2 0-3.7-3.1-6.7-8.5-8.1-5.5-1.5-12-5.4-16.4-10-5.3-5.4-30.2-51.2-30.1-55.4 0-1.1 3.3-4.7 24.9-27.5 23.9-25.1 27-28.5 33.8-37.1 7.1-9.1 8.9-12.7 10.8-21.4 3.2-14.3-2.6-26.4-17.5-36.5-15.3-10.4-34.4-16.2-40.2-12.2z"/></svg>